<svg width="24" height="21" viewBox="0 0 24 21" fill="none" xmlns="http://www.w3.org/2000/svg">
<path d="M24 6.78285C24 14.4409 12.8796 20.6396 12.4061 20.8956C12.2813 20.9641 12.1417 21 12 21C11.8583 21 11.7187 20.9641 11.5939 20.8956C11.235 20.6986 4.785 17.1004 1.66393 12.0461C1.62367 11.9799 1.60145 11.9039 1.59958 11.826C1.59771 11.7481 1.61624 11.6711 1.65327 11.603C1.6903 11.5348 1.74447 11.478 1.8102 11.4384C1.87593 11.3988 1.95082 11.3778 2.02714 11.3777H6C6.14115 11.3778 6.28014 11.3423 6.40462 11.2743C6.52911 11.2064 6.63523 11.1081 6.71357 10.9882L7.71429 9.4566L10.4293 13.6138C10.5333 13.7731 10.6856 13.8932 10.8629 13.9557C11.0402 14.0181 11.2326 14.0195 11.4107 13.9595C11.5996 13.8942 11.7613 13.7654 11.8693 13.5941L13.3157 11.3777H15.4286C15.5461 11.3779 15.6624 11.3535 15.7703 11.306C15.8781 11.2584 15.9753 11.1887 16.0557 11.1012C16.136 11.0137 16.1979 10.9102 16.2375 10.7973C16.2771 10.6843 16.2935 10.5642 16.2857 10.4445C16.2665 10.2195 16.1648 10.0103 16.0008 9.85873C15.8369 9.70717 15.6229 9.62449 15.4018 9.62727H12.8571C12.716 9.62718 12.577 9.66268 12.4525 9.73062C12.328 9.79856 12.2219 9.89684 12.1436 10.0167L11.1429 11.5483L8.42786 7.39112C8.32377 7.23158 8.17126 7.11135 7.99377 7.04889C7.81627 6.98644 7.6236 6.98522 7.44536 7.04541C7.2569 7.11111 7.09569 7.23987 6.98786 7.41081L5.54143 9.62727H0.806786C0.715192 9.62753 0.625926 9.59782 0.552076 9.54249C0.478226 9.48717 0.423678 9.40914 0.396429 9.31985C0.137911 8.49988 0.00421077 7.64425 0 6.78285C0.00198508 4.98455 0.702493 3.26048 1.94784 1.98889C3.19319 0.717298 4.88167 0.00202691 6.64286 0C8.85536 0 10.7925 0.971479 12 2.61358C13.2075 0.971479 15.1446 0 17.3571 0C19.1183 0.00202691 20.8068 0.717298 22.0522 1.98889C23.2975 3.26048 23.998 4.98455 24 6.78285Z" fill="url(#paint0_linear_2_505)"/>
<defs>
<linearGradient id="paint0_linear_2_505" x1="-2.52527e-07" y1="17.3793" x2="26.6728" y2="-3.43435" gradientUnits="userSpaceOnUse">
<stop stop-color="#4683D0"/>
<stop offset="1" stop-color="#7CD0A2"/>
</linearGradient>
</defs>
</svg>
