<svg width="27" height="27" viewBox="0 0 27 27" fill="none" xmlns="http://www.w3.org/2000/svg">
<path d="M26.0741 16.1534C26.0744 15.2697 25.8306 14.4031 25.3696 13.6491C24.9087 12.895 24.2485 12.2829 23.4618 11.8801C22.6752 11.4773 21.7925 11.2995 20.9112 11.3662C20.0299 11.433 19.1842 11.7417 18.4672 12.2585C17.7502 12.7752 17.1897 13.4798 16.8477 14.2946C16.5056 15.1095 16.3952 16.003 16.5286 16.8766C16.662 17.7502 17.034 18.57 17.6037 19.2457C18.1733 19.9214 18.9185 20.4267 19.757 20.7059C19.5942 21.4557 19.1797 22.1271 18.5824 22.6087C17.9851 23.0903 17.2409 23.3529 16.4736 23.353H13.5935C12.7023 23.353 11.8476 22.999 11.2175 22.3689C10.5873 21.7388 10.2333 20.8843 10.2333 19.9932V15.5415C14.0411 14.8479 16.9537 11.4509 16.9537 7.4144V2.7143C16.9537 2.39915 16.8916 2.08708 16.771 1.79592C16.6503 1.50476 16.4735 1.2402 16.2507 1.01735C16.0278 0.794505 15.7632 0.617734 15.472 0.497131C15.1808 0.376527 14.8687 0.314453 14.5535 0.314453H12.6334C12.2515 0.314453 11.8852 0.466157 11.6151 0.736192C11.3451 1.00623 11.1934 1.37247 11.1934 1.75436C11.1934 2.13625 11.3451 2.50249 11.6151 2.77253C11.8852 3.04256 12.2515 3.19427 12.6334 3.19427H14.0735V7.4144C14.0735 10.3422 11.737 12.7565 8.86404 12.7937C8.16469 12.803 7.47044 12.6734 6.82161 12.4123C6.17279 12.1511 5.58231 11.7637 5.08447 11.2725C4.58662 10.7813 4.19134 10.1961 3.92156 9.55092C3.65179 8.9057 3.5129 8.21332 3.51296 7.51399V3.19427H4.95304C5.33497 3.19427 5.70126 3.04256 5.97132 2.77253C6.24139 2.50249 6.39311 2.13625 6.39311 1.75436C6.39311 1.37247 6.24139 1.00623 5.97132 0.736192C5.70126 0.466157 5.33497 0.314453 4.95304 0.314453H3.03294C2.39638 0.314453 1.7859 0.567293 1.33579 1.01735C0.885682 1.46741 0.632813 2.07782 0.632812 2.7143V7.51399C0.632891 9.42823 1.30607 11.2815 2.53458 12.7496C3.7631 14.2178 5.46875 15.2073 7.35316 15.5451V19.9932C7.35506 21.6475 8.01314 23.2334 9.18301 24.4032C10.3529 25.5729 11.939 26.2309 13.5935 26.2328H16.4736C17.9975 26.231 19.4682 25.6723 20.6089 24.6619C21.7496 23.6515 22.4816 22.2591 22.6671 20.7467C23.6519 20.4465 24.5143 19.8382 25.1276 19.0114C25.7409 18.1846 26.0727 17.1828 26.0741 16.1534ZM21.2739 18.0733C20.8941 18.0733 20.5229 17.9607 20.2071 17.7498C19.8914 17.5388 19.6453 17.239 19.4999 16.8881C19.3546 16.5373 19.3166 16.1513 19.3907 15.7789C19.4648 15.4065 19.6476 15.0644 19.9162 14.7959C20.1847 14.5274 20.5268 14.3445 20.8993 14.2705C21.2717 14.1964 21.6578 14.2344 22.0087 14.3797C22.3595 14.525 22.6594 14.7711 22.8704 15.0868C23.0814 15.4025 23.194 15.7737 23.194 16.1534C23.194 16.6626 22.9917 17.1509 22.6316 17.511C22.2715 17.871 21.7831 18.0733 21.2739 18.0733Z" fill="url(#paint0_linear_2_296)"/>
<defs>
<linearGradient id="paint0_linear_2_296" x1="-1.43429" y1="4.21015" x2="18.7597" y2="26.2328" gradientUnits="userSpaceOnUse">
<stop stop-color="#D86D6B"/>
<stop offset="0.228785" stop-color="#F5854E"/>
<stop offset="0.408008" stop-color="#F0C971"/>
<stop offset="0.634525" stop-color="#3CC6C1"/>
<stop offset="0.790545" stop-color="#419E80"/>
<stop offset="1" stop-color="#4188C1"/>
</linearGradient>
</defs>
</svg>
